<?xml version="1.0" encoding="UTF-8" standalone="no"?>
<!-- Created with Inkscape (http://www.inkscape.org/) -->

<svg
   xmlns:dc="http://purl.org/dc/elements/1.1/"
   xmlns:cc="http://creativecommons.org/ns#"
   xmlns:rdf="http://www.w3.org/1999/02/22-rdf-syntax-ns#"
   xmlns:svg="http://www.w3.org/2000/svg"
   xmlns="http://www.w3.org/2000/svg"
   xmlns:sodipodi="http://sodipodi.sourceforge.net/DTD/sodipodi-0.dtd"
   xmlns:inkscape="http://www.inkscape.org/namespaces/inkscape"
   width="48mm"
   height="48mm"
   viewBox="0 0 170.07874 170.07874"
   id="svg2"
   version="1.1"
   inkscape:version="0.91 r13725"
   sodipodi:docname="icon.svg"
   inkscape:export-filename="C:\Users\Antonio\Documents\GitHub\Xamarin\CharpHat\assets\icons\icon-mdpi.png"
   inkscape:export-xdpi="25.4"
   inkscape:export-ydpi="25.4">
  <defs
     id="defs4" />
  <sodipodi:namedview
     id="base"
     pagecolor="#ffffff"
     bordercolor="#666666"
     borderopacity="1.0"
     inkscape:pageopacity="0.0"
     inkscape:pageshadow="2"
     inkscape:zoom="2"
     inkscape:cx="-7.5190841"
     inkscape:cy="88.491378"
     inkscape:document-units="px"
     inkscape:current-layer="layer1"
     showgrid="false"
     inkscape:window-width="1920"
     inkscape:window-height="1027"
     inkscape:window-x="1358"
     inkscape:window-y="-8"
     inkscape:window-maximized="1" />
  <metadata
     id="metadata7">
    <rdf:RDF>
      <cc:Work
         rdf:about="">
        <dc:format>image/svg+xml</dc:format>
        <dc:type
           rdf:resource="http://purl.org/dc/dcmitype/StillImage" />
        <dc:title></dc:title>
      </cc:Work>
    </rdf:RDF>
  </metadata>
  <g
     inkscape:label="Capa 1"
     inkscape:groupmode="layer"
     id="layer1"
     transform="translate(0,-882.28346)">
    <g
       id="g4158"
       transform="translate(-1.4606342,2.4606695)">
      <path
         inkscape:export-ydpi="138.66"
         inkscape:export-xdpi="138.66"
         inkscape:connector-curvature="0"
         id="path4246"
         d="m 148.83796,959.9729 0,23.80919"
         style="display:inline;fill:none;fill-rule:evenodd;stroke:#a46cbc;stroke-width:3.39746761;stroke-linecap:butt;stroke-linejoin:miter;stroke-miterlimit:4;stroke-dasharray:10.19240206, 3.39746735;stroke-dashoffset:9.19999981;stroke-opacity:1" />
      <path
         inkscape:export-ydpi="138.66"
         inkscape:export-xdpi="138.66"
         inkscape:connector-curvature="0"
         id="path4211"
         d="m 41.584765,975.7612 -1.799928,1.09823 0,21.23425 c 0,11.72712 20.91509,21.23402 46.71517,21.23402 25.800073,0 46.715163,-9.5069 46.715163,-21.23402 l 0,-21.23425 -1.79993,-1.09823 -44.915233,23.18184 -44.915242,-23.18184 z"
         style="display:inline;fill:#e9d9ee;fill-opacity:1;stroke:#a46cbc;stroke-width:3.39746761;stroke-linejoin:miter;stroke-miterlimit:4.9000001;stroke-dasharray:13.58986941, 3.39746735;stroke-dashoffset:24;stroke-opacity:1" />
      <path
         inkscape:export-ydpi="138.66"
         inkscape:export-xdpi="138.66"
         inkscape:connector-curvature="0"
         id="path4235"
         d="m 7.5088888,951.37918 78.9911182,40.7696 78.991113,-40.7696 -78.991113,-40.76964 z"
         style="display:inline;fill:#e9d9ee;fill-opacity:1;fill-rule:evenodd;stroke:#a46cbc;stroke-width:3.39746761;stroke-linecap:butt;stroke-linejoin:miter;stroke-miterlimit:4.5;stroke-dasharray:13.58986941, 3.39746735;stroke-dashoffset:13.60000038;stroke-opacity:1" />
      <g
         inkscape:export-ydpi="138.66"
         inkscape:export-xdpi="138.66"
         id="text4255"
         style="font-style:normal;font-variant:normal;font-weight:normal;font-stretch:normal;font-size:59.99568939px;line-height:125%;font-family:Calibri;-inkscape-font-specification:Calibri;letter-spacing:0px;word-spacing:0px;fill:#000000;fill-opacity:1;stroke:none;stroke-width:1px;stroke-linecap:butt;stroke-linejoin:miter;stroke-opacity:1"
         transform="matrix(0.84936685,0,0,0.84936685,-11.177182,626.61337)">
        <path
           sodipodi:nodetypes="cc"
           inkscape:connector-curvature="0"
           id="path4262"
           d="m 125,365.21935 -4.64285,37.85714"
           style="fill:#a46cbc;fill-opacity:1;fill-rule:evenodd;stroke:#a46cbc;stroke-width:4;stroke-linecap:butt;stroke-linejoin:miter;stroke-miterlimit:4;stroke-dasharray:none;stroke-opacity:1" />
        <path
           sodipodi:nodetypes="cc"
           inkscape:connector-curvature="0"
           id="path4266"
           d="m 115.98214,390.13006 21.96428,-2.49999"
           style="fill:#a46cbc;fill-opacity:1;fill-rule:evenodd;stroke:#a46cbc;stroke-width:4;stroke-linecap:butt;stroke-linejoin:miter;stroke-miterlimit:4;stroke-dasharray:none;stroke-opacity:1" />
        <path
           sodipodi:nodetypes="cc"
           style="fill:#a46cbc;fill-opacity:1;fill-rule:evenodd;stroke:#a46cbc;stroke-width:4;stroke-linecap:butt;stroke-linejoin:miter;stroke-miterlimit:4;stroke-dasharray:none;stroke-opacity:1"
           d="m 135.08929,364.02292 -4.375,37.58928"
           id="path4268"
           inkscape:connector-curvature="0" />
        <path
           style="fill:#a46cbc;fill-opacity:1;fill-rule:evenodd;stroke:#a46cbc;stroke-width:4;stroke-linecap:butt;stroke-linejoin:miter;stroke-miterlimit:4;stroke-dasharray:none;stroke-opacity:1"
           d="m 116.91072,378.75506 22.58927,-2.49999"
           id="path4270"
           inkscape:connector-curvature="0"
           sodipodi:nodetypes="cc" />
      </g>
      <path
         inkscape:export-ydpi="138.66"
         inkscape:export-xdpi="138.66"
         inkscape:connector-curvature="0"
         id="flowRoot4286"
         d="m 75.135112,936.17606 c -3.701667,0.57201 -6.642447,2.46069 -8.801181,5.70057 -0.726853,1.09087 -1.303998,2.26016 -1.764763,3.49039 l 4.116302,2.31815 c 0.305441,-1.13746 0.728453,-2.19165 1.27744,-3.1583 1.331646,-2.32295 3.175741,-3.7309 5.53061,-4.22734 l -0.358408,-4.12347 z m 2.872015,-0.23463 0.357254,4.11025 c 2.216659,-0.0203 3.94665,0.33883 5.170129,1.08924 l 1.166444,-4.03287 c -1.741406,-0.83909 -3.978452,-1.22262 -6.693827,-1.16662 z m -14.247526,12.27682 c -0.393306,1.99161 -0.503461,4.13158 -0.303341,6.43398 0.300641,3.45887 1.131688,6.40565 2.467265,8.86406 l 3.669375,-3.26462 c -0.731738,-1.65592 -1.200443,-3.56157 -1.389411,-5.7357 -0.117,-1.34608 -0.118885,-2.61119 -0.02293,-3.80787 l -4.420971,-2.48985 z m 7.313142,14.57575 -3.538088,3.14663 c 0.232133,0.28701 0.463042,0.57537 0.714429,0.84377 2.747047,2.93279 6.272149,4.21218 10.574447,3.83829 0.648254,-0.0561 1.267698,-0.15417 1.872931,-0.27272 l -1.067485,-3.96689 c -0.228259,0.0331 -0.451744,0.0731 -0.689601,0.0933 -2.833216,0.24623 -5.251567,-0.73215 -7.255317,-2.93286 -0.214822,-0.23936 -0.415825,-0.49169 -0.611316,-0.74947 z m 14.705225,-0.26739 c -0.852866,1.37105 -1.987424,2.37686 -3.383887,3.04328 l 1.065116,3.95882 c 1.993565,-0.81573 3.69681,-2.04996 5.094418,-3.72821 l -2.775647,-3.27389 z"
         style="font-style:normal;font-variant:normal;font-weight:normal;font-stretch:normal;font-size:40px;line-height:125%;font-family:'Trebuchet MS';-inkscape-font-specification:'Trebuchet MS';letter-spacing:0px;word-spacing:0px;display:inline;opacity:0.97000002;fill:#a46cbc;fill-opacity:1;stroke:none;stroke-width:1px;stroke-linecap:butt;stroke-linejoin:miter;stroke-opacity:1" />
    </g>
  </g>
</svg>
