<?xml version="1.0" encoding="UTF-8" standalone="no"?>
<!-- Created with Inkscape (http://www.inkscape.org/) -->

<svg
   xmlns:dc="http://purl.org/dc/elements/1.1/"
   xmlns:cc="http://creativecommons.org/ns#"
   xmlns:rdf="http://www.w3.org/1999/02/22-rdf-syntax-ns#"
   xmlns:svg="http://www.w3.org/2000/svg"
   xmlns="http://www.w3.org/2000/svg"
   xmlns:sodipodi="http://sodipodi.sourceforge.net/DTD/sodipodi-0.dtd"
   xmlns:inkscape="http://www.inkscape.org/namespaces/inkscape"
   width="400"
   height="400"
   viewBox="0 0 399.99998 399.99998"
   id="svg4816"
   version="1.1"
   inkscape:version="0.91 r13725"
   inkscape:export-filename="C:\Users\fferegrino\Documents\GitHub\xsa\CharpHat\CharpHat\CharpHat.WinPhone\Assets\StoreLogo.scale-100.png"
   inkscape:export-xdpi="11.25"
   inkscape:export-ydpi="11.25"
   sodipodi:docname="appIcon.svg">
  <defs
     id="defs4818" />
  <sodipodi:namedview
     id="base"
     pagecolor="#ffffff"
     bordercolor="#666666"
     borderopacity="1.0"
     inkscape:pageopacity="1"
     inkscape:pageshadow="2"
     inkscape:zoom="0.35"
     inkscape:cx="120.13335"
     inkscape:cy="89.711911"
     inkscape:document-units="px"
     inkscape:current-layer="g4152"
     showgrid="false"
     units="px"
     inkscape:window-width="760"
     inkscape:window-height="405"
     inkscape:window-x="693"
     inkscape:window-y="82"
     inkscape:window-maximized="0"
     borderlayer="true" />
  <metadata
     id="metadata4821">
    <rdf:RDF>
      <cc:Work
         rdf:about="">
        <dc:format>image/svg+xml</dc:format>
        <dc:type
           rdf:resource="http://purl.org/dc/dcmitype/StillImage" />
        <dc:title></dc:title>
      </cc:Work>
    </rdf:RDF>
  </metadata>
  <g
     inkscape:label="Capa 1"
     inkscape:groupmode="layer"
     id="layer1"
     transform="translate(0,-652.36216)"
     sodipodi:insensitive="true"
     style="display:inline">
    <g
       id="g5400"
       transform="matrix(0.96592583,-0.25881905,0.25881905,0.96592583,-380.34208,872.13648)">
      <path
         inkscape:connector-curvature="0"
         id="rect4695"
         d="M 565.68536,-64.05842 760.8468,131.10303 565.68536,326.26447 370.52391,131.10303 Z"
         style="display:inline;opacity:1;fill:#e9d9ee;fill-opacity:1;stroke:#a46cbc;stroke-width:10;stroke-miterlimit:0;stroke-dasharray:40, 10;stroke-dashoffset:18;stroke-opacity:1" />
      <g
         transform="matrix(3.2132035,0,0,3.2132035,-530.75943,-2755.7063)"
         id="g4800"
         style="display:inline">
        <g
           id="g4738"
           transform="translate(128.10765,82.963726)">
          <rect
             transform="matrix(0.99295936,0.11845551,-0.11845551,0.99295936,0,0)"
             inkscape:transform-center-y="19.018695"
             inkscape:transform-center-x="-0.078163176"
             y="761.82135"
             x="325.02277"
             height="37.696331"
             width="4.626524"
             id="rect4701"
             style="opacity:1;fill:#a46cbc;fill-opacity:1" />
          <rect
             style="opacity:1;fill:#a46cbc;fill-opacity:1"
             id="rect4703"
             width="4.626524"
             height="37.696331"
             x="315.33002"
             y="764.99194"
             inkscape:transform-center-x="-0.078163176"
             inkscape:transform-center-y="19.018695"
             transform="matrix(0.99295936,0.11845551,-0.11845551,0.99295936,0,0)" />
          <rect
             transform="matrix(0.10219208,0.99476468,-0.99473323,0.10249777,0,0)"
             inkscape:transform-center-y="-0.0079211202"
             inkscape:transform-center-x="-0.92217397"
             y="-155.42549"
             x="824.93738"
             height="23.071871"
             width="4.626524"
             id="rect4705"
             style="opacity:1;fill:#a46cbc;fill-opacity:1" />
          <rect
             transform="matrix(0.10219208,0.99476469,-0.99473323,0.10249777,0,0)"
             inkscape:transform-center-y="-0.0079211202"
             inkscape:transform-center-x="-0.92217397"
             y="-153.40143"
             x="836.85815"
             height="23.071871"
             width="4.626524"
             id="rect4705-4"
             style="opacity:1;fill:#a46cbc;fill-opacity:1" />
        </g>
        <path
           style="opacity:0.98999999;fill:#a46cbc;fill-opacity:1"
           d="m 334.29688,877.37407 0,5.98828 c 1.07991,0.20378 2.13316,0.57872 3.13281,1.11523 l 2.85156,-4.9375 c -1.87087,-1.15474 -3.89834,-1.88857 -5.98437,-2.16601 z m -4.62696,0.125 c -5.08469,0.97103 -9.55404,4.62861 -12.20507,9.98828 l 4.4375,2.5625 c 1.7887,-3.32167 4.57691,-5.66049 7.76757,-6.51563 z m -13.84375,14.38672 c -0.55868,2.08547 -0.84664,4.26391 -0.85351,6.45703 0.007,3.98528 0.94234,7.88677 2.69726,11.2539 l 3.8125,-3.8125 c -1.0575,-2.27016 -1.61581,-4.83296 -1.62109,-7.4414 0.005,-1.31083 0.15048,-2.61529 0.43164,-3.88086 z m 8.26758,17.83008 -3.81445,3.8164 c 3.2417,3.80637 7.57358,5.9345 12.08203,5.93555 0.92752,-0.008 1.853,-0.1071 2.76758,-0.29492 l -1.53516,-5.73243 c -0.40936,0.0539 -0.82067,0.0833 -1.23242,0.0879 -3.0462,-0.005 -5.98618,-1.36033 -8.26758,-3.8125 z m 16.17969,0.36914 c -0.70889,0.7081 -1.47981,1.3192 -2.29883,1.82226 l 1.52149,5.67969 c 1.68321,-0.92359 3.23455,-2.16704 4.5957,-3.68359 z"
           id="path4744"
           inkscape:connector-curvature="0"
           sodipodi:nodetypes="ccccccccccccccccccccccccccccc" />
      </g>
    </g>
  </g>
  <g
     transform="translate(0,-652.36216)"
     id="g4150"
     inkscape:groupmode="layer"
     inkscape:label="Capa 1 copia"
     style="display:none">
    <g
       transform="matrix(0.96592583,-0.25881905,0.25881905,0.96592583,-380.34208,872.13648)"
       id="g4152">
      <path
         style="display:inline;opacity:1;fill:#ffffff;fill-opacity:1;stroke:none;stroke-width:10;stroke-miterlimit:0;stroke-dasharray:40, 10;stroke-dashoffset:18;stroke-opacity:1"
         d="M 149.48828,11.488281 11.488281,250.51172 l 239.023439,138 138,-239.02344 L 149.48828,11.488281 Z m 108.29492,106.662109 4.37696,30.38086 8.91406,-3.40039 5.29492,13.89062 -12.03711,4.5918 3.42578,23.7793 10.88281,-4.15235 5.29493,13.89063 -14.00586,5.34375 5.12304,35.56445 -14.71484,2.11914 -4.64648,-32.25195 -15.58985,5.94922 5.57617,38.70703 -14.71289,2.11914 -5.09765,-35.39453 -11.19531,4.27148 -5.29493,-13.89257 14.31641,-5.4629 -3.42578,-23.77734 -13.16211,5.02149 -5.29492,-13.89063 16.28515,-6.21289 -4.40039,-30.55078 14.71289,-2.11914 3.92383,27.23828 15.58985,-5.94727 -4.85352,-33.69531 14.71484,-2.11914 z m -89.83789,21.91016 c 4.46365,0.0855 8.96347,0.79797 13.4043,2.1289 l -4.74414,17.69532 c -3.54881,-0.83383 -7.12919,-1.12109 -10.65039,-0.85547 l -4.98047,-18.58594 c 1.67629,-0.21843 3.36474,-0.34513 5.06055,-0.38086 0.63592,-0.0134 1.27249,-0.0142 1.91015,-0.002 z m -21.22656,4.61914 5.01758,18.73047 c -9.19174,5.30758 -15.90027,14.88652 -18.68945,26.68359 l -15.90235,-4.26367 c 3.77074,-18.8396 14.60033,-33.90797 29.57422,-41.15039 z m 103.375,24.36719 -15.58984,5.94726 3.42578,23.77734 15.58984,-5.94726 -3.42578,-23.77734 z m -134.37891,31.79687 16.00782,4.28125 c 0.17985,4.16179 0.8121,8.33169 1.88672,12.4043 2.18565,8.09146 6.05057,15.58157 11.2207,21.74804 l -8.66211,15.00391 c -8.24701,-8.99116 -14.39639,-20.32219 -17.73242,-32.68555 -1.80256,-6.81253 -2.72033,-13.81462 -2.72071,-20.75195 z m 91.01368,36.1543 15.02539,8.67578 c -2.96341,5.83892 -6.74311,10.98947 -11.19922,15.25586 l -9.44531,-16.36328 c 2.12364,-2.24249 4.00783,-4.78108 5.61914,-7.56836 z m -50.5254,12.31054 c 9.12015,5.71354 19.37334,7.47485 28.83204,4.95703 1.27413,-0.35669 2.52624,-0.78914 3.75195,-1.29687 l 9.53125,16.51367 c -2.6824,1.34354 -5.47164,2.42061 -8.34375,3.2168 -13.99383,3.74614 -29.20871,0.74492 -42.43555,-8.37305 l 8.66406,-15.01758 z"
         transform="matrix(0.96592571,0.25881902,-0.25881902,0.96592571,424.26402,-113.84592)"
         id="path4154"
         inkscape:export-filename="C:\Users\fferegrino\Documents\GitHub\xsa\CharpHat\CharpHat\CharpHat.WinPhone\Assets\Square44x44Logo.scale-240.png"
         inkscape:export-xdpi="25.299999"
         inkscape:export-ydpi="25.299999"
         inkscape:connector-curvature="0" />
      <g
         style="display:inline"
         id="g4156"
         transform="matrix(3.2132035,0,0,3.2132035,-530.75943,-2755.7063)">
        <g
           transform="translate(128.10765,82.963726)"
           id="g4158" />
      </g>
    </g>
  </g>
</svg>
